<svg xmlns="http://www.w3.org/2000/svg" viewBox="0 0 24 24" fill="currentColor">
  <path d="M17.283 13.682c-.008.075-.012.15-.012.228_0_1.85.957 3.291 2.237 4.328-.962.995-2.239 1.608-3.591 1.622-1.273-.009-2.405-.69-3.348-1.341-.992-.709-1.848-1.349-3.037-1.349-1.193_0-2.148.636-3.086 1.336-.95.661-1.991 1.295-3.237 1.275-1.31-.022-2.535-.678-3.495-1.726_1.808-1.202 2.818-3.22 2.806-5.225_0-1.788-.812-3.289-2.145-4.265_1.06-.976 2.455-1.545 3.855-1.545_1.23_0_2.38.508 3.232 1.15.863.649 1.736 1.197 2.934 1.197_1.155_0_2.022-.536 2.864-1.17.977-.732 2.049-1.228 3.22-1.198_-.095_1.138.413 2.482_1.156 3.427-.663.546-1.283_1.027-1.82_1.577_-.092.094-.17.196-.235.306_-.207.35-.37.728-.37_1.248_0_0_0_0_0_0zm-3.216-9.305c.86-.97 1.438-2.259_1.226-3.62-.967.064-2.285.714-3.215_1.696-.79.836-1.478 2.11-1.214_3.476_1.115.11_2.338-.585_3.203-1.552z"/>
</svg> 