<svg xmlns="http://www.w3.org/2000/svg" viewBox="0 0 24 24" fill="currentColor">
  <path d="M12 2.163c3.204 0 3.584.012 4.85.07 1.17.053 1.805.248 2.227.415.562.217.96.477 1.382.896.419.42.679.819.896 1.381.168.422.363 1.057.413 2.227.057 1.266.07 1.646.07 4.85s-.013 3.583-.07 4.85c-.05.96-.245 1.505-.413 1.927-.218.562-.477.96-.896 1.382-.42.419-.82.679-1.382.896-.422.168-1.057.363-2.227.413-1.266.057-1.646.07-4.85.07s-3.584-.013-4.85-.07c-1.17-.05-1.805-.245-2.227-.413-.562-.218-.96-.477-1.382-.896-.419-.42-.679-.82-1.381-.896-.168-.422-.363-1.057-.413-2.227-.057-1.266-.07-1.646-.07-4.85s.013-3.584.07-4.85c.05-1.17.248-1.805.413-2.227.217-.562.477-.96.896-1.382.42-.419.819-.679 1.381-.896.422-.168 1.057-.363 2.227-.413C8.416 2.175 8.796 2.163 12 2.163m0-2.163C8.74 0 8.31.013 7.053.072 2.695.272.273 2.69.073 7.052.013 8.31 0 8.74 0 12s.013 3.69.072 4.948c.2 4.358 2.618 6.78 6.98 6.98C8.31 23.987 8.74 24 12 24s3.69-.013 4.948-.072c4.354-.2 6.782-2.618 6.979-6.98.06-1.258.073-1.689.073-4.948s-.013-3.69-.072-4.948c-.196-4.354-2.617-6.78-6.979-6.98C15.69.013 15.26 0 12 0zm0 5.838a6.162 6.162 0 100 12.324 6.162 6.162 0 000-12.324zM12 16a4 4 0 110-8 4 4 0 010 8zm6.406-11.845a1.44 1.44 0 100 2.88 1.44 1.44 0 000-2.88z"/>
</svg> 